<?xml version="1.0" standalone="no"?>
<!DOCTYPE svg PUBLIC "-//W3C//DTD SVG 20010904//EN"
 "http://www.w3.org/TR/2001/REC-SVG-20010904/DTD/svg10.dtd">
<svg version="1.0" xmlns="http://www.w3.org/2000/svg"
 width="1024.000000pt" height="1024.000000pt" viewBox="0 0 1024.000000 1024.000000"
 preserveAspectRatio="xMidYMid meet">
<metadata>
Created by potrace 1.14, written by Peter Selinger 2001-2017
</metadata>
<g transform="translate(0.000000,1024.000000) scale(0.100000,-0.100000)"
fill="#000000" stroke="none">
<path d="M1999 9810 c-13 -3 -164 -81 -334 -174 -171 -93 -335 -183 -365 -199
-30 -16 -68 -38 -85 -47 -16 -10 -57 -32 -90 -50 -33 -17 -82 -44 -110 -59
-27 -15 -79 -44 -115 -63 -115 -61 -204 -110 -235 -128 -40 -23 -163 -90 -198
-108 -15 -7 -31 -21 -35 -30 -4 -9 -7 -107 -7 -217 l1 -200 211 -5 211 -5
-425 -850 -424 -850 4 -375 c2 -206 6 -384 9 -395 40 -136 94 -232 183 -320
81 -80 198 -146 305 -171 76 -17 211 -17 290 2 30 7 56 11 58 9 2 -1 4 -776 5
-1721 l2 -1719 -428 -640 -427 -641 0 -212 c0 -195 1 -212 18 -213 58 -3
10199 -4 10210 -1 9 3 12 55 12 215 l0 211 -427 640 -426 641 0 1275 c1 701 2
1477 2 1724 l1 448 23 -6 c12 -4 33 -9 47 -12 14 -2 36 -7 50 -10 50 -11 167
-4 241 15 215 55 372 199 454 416 29 77 33 142 35 484 l1 356 -424 850 -425
850 209 3 c208 2 209 2 210 25 0 12 1 105 2 206 2 152 -1 188 -13 202 -12 13
-343 196 -905 499 -33 18 -73 41 -90 50 -16 10 -64 36 -105 58 -111 58 -391
212 -420 230 -23 14 -318 16 -3140 16 -1714 1 -3127 -1 -3141 -4z"/>
</g>
</svg>
